<svg xmlns="http://www.w3.org/2000/svg" width="26.992" height="26.992" viewBox="0 0 26.992 26.992"><path d="M11.247,13.5H5.463a.967.967,0,0,0-.964.964V31.813a.967.967,0,0,0,.964.964h5.784a.967.967,0,0,0,.964-.964V14.46A.967.967,0,0,0,11.247,13.5Zm0,17.352H5.463V23.136h5.784v7.712ZM20.887,9.64H15.1a.967.967,0,0,0-.964.964V31.813a.967.967,0,0,0,.964.964h5.784a.967.967,0,0,0,.964-.964V10.6a.967.967,0,0,0-.964-.964Zm0,21.208H15.1v-9.64h5.784v9.64Zm9.64-25.064H24.743a.967.967,0,0,0-.964.964V31.813a.967.967,0,0,0,.964.964h5.784a.967.967,0,0,0,.964-.964V6.748a.967.967,0,0,0-.964-.964Zm0,25.064H24.743V19.28h5.784V30.849Z" transform="translate(-4.499 -5.784)"/></svg>